<svg width="150" height="150" viewBox="0 0 150 150" fill="none" xmlns="http://www.w3.org/2000/svg" style="width: 200px; height: 200px;"><style>
     .chatting17-a {animation:chatting17-bounce 1s ease-in-out infinite;}
     .chatting17-b {animation:chatting17-bounce 1s ease-in-out 200ms infinite;}
     .chatting17-c {animation:chatting17-bounce 1s ease-in-out 400ms infinite;}
     @keyframes chatting17-bounce {
         0%{transform:translate3d(0, 2px, 0);}
         50%{transform:translate3d(0, -2px, 0);}
         100%{transform:translate3d(0, 2px, 0);}
     }
     @media (prefers-reduced-motion: reduce) {
         .chatting17-a, .chatting17-b, .chatting17-c {
             animation: none;
         }
     }
    </style><path class="fillCls1" d="M126.961 116.821H13.2753C10.9142 116.821 9 114.911 9 112.555V34.3922C9 32.0357 10.9142 30.1254 13.2753 30.1254H126.961C129.323 30.1254 131.236 32.0357 131.236 34.3922V112.555C131.236 114.911 129.323 116.821 126.961 116.821Z" fill="#83D2E9" stroke-width="2px" style="animation-duration: 1s;"></path><path class="fillCls8" d="M48.197 100.02C48.197 100.02 47.0554 103.351 45.4745 108.522C43.7154 114.279 43.1914 116.587 43.1914 116.587L60.4065 117.201L61.6363 104.665L48.197 100.02Z" fill="rgba(226,174,169,1)" stroke-width="2px" style="animation-duration: 1s;"></path><path class="fillCls8" d="M123.41 79.5917C123.41 79.5917 123.061 78.2983 123.493 75.3154C123.924 72.3324 125.452 66.2876 126.528 66.0582C127.604 65.829 126.632 71.8549 127.172 72.1974C127.712 72.5413 134.484 62.7465 135.394 63.3823C136.304 64.0182 132.818 70.4875 132.894 70.2352C132.968 69.9827 138.141 64.0142 138.898 64.2393C139.655 64.4644 139.549 65.4387 139.549 65.4387C139.549 65.4387 140.498 65.5425 140.347 66.5658C140.267 67.0939 135.234 73.7652 135.234 73.7652C135.234 73.7652 140.832 69.7535 141.178 70.1315C141.524 70.508 139.542 72.8483 136.283 76.0903C133.026 79.3326 129.723 82.1039 129.723 82.1039L116.445 111.357C115.935 112.479 114.696 113.076 113.498 112.775C108.547 111.527 92.2761 102.992 91.191 100.374C90.8628 99.5824 97.8092 89.9487 97.518 89.2309C96.7452 87.3302 111.241 99.8116 111.296 99.7338C111.451 99.5101 123.41 79.5917 123.41 79.5917Z" fill="rgba(226,174,169,1)" stroke-width="2px" style="animation-duration: 1s;"></path><path class="fillCls10" d="M69.9956 59.5478C69.9956 59.5478 69.4415 54.5631 74.1419 52.0046C79.368 49.1595 86.2967 51.3551 89.3544 55.1963C92.0733 58.609 92.0415 65.8042 90.016 69.9129C87.9905 74.0214 92.1068 75.7285 92.4332 79.9559C93.0349 87.7187 80.0737 92.1918 69.5068 90.1573C59.7851 88.2863 55.3441 85.2325 57.4084 78.1287C58.5747 74.1157 63.8784 74.2808 66.0345 71.9336C68.1923 69.5867 65.8828 67.1264 66.1862 64.4698C66.6679 60.2328 69.9956 59.5478 69.9956 59.5478Z" fill="rgba(55,5,5,1)" stroke-width="2px" style="animation-duration: 1s;"></path><path class="fillCls7" d="M43.5723 100.859C43.5723 100.859 49.4688 84.2992 59.8911 79.6448C70.3133 74.9917 87.2514 78.8152 91.1083 80.9615C96.0892 83.7316 106.615 92.7226 106.615 92.7226L94.6141 105.971L93.215 116.734L56.4611 116.598L55.9141 107.017L43.5723 100.859Z" fill="#20457B" stroke-width="2px" style="animation-duration: 1s;"></path><path class="fillCls9" d="M74.3156 66.2477L71.752 79.0554C71.752 79.0554 72.7471 81.3969 76.7469 81.4147C80.0569 81.4283 81.1367 79.7963 81.1367 79.7963L82.4212 70.6294L74.3156 66.2477Z" fill="rgba(222,169,162,1)" stroke-width="2px" style="animation-duration: 1s;"></path><path class="fillCls8" d="M86.9821 58.1561C86.9821 58.1561 89.0023 68.4885 85.5935 70.8831C82.1847 73.2779 77.008 70.7576 74.9878 68.1104C72.9658 65.4645 73.5728 64.4126 74.2309 63.8257C75.099 63.052 75.997 63.8257 75.997 63.8257C75.997 63.8257 75.3125 59.0307 77.3344 58.2748C79.3547 57.5188 86.9821 58.1561 86.9821 58.1561Z" fill="rgba(226,174,169,1)" stroke-width="2px" style="animation-duration: 1s;"></path><path class="fillCls12" d="M84.1212 67.8093L81.0812 67C81.0812 67 80.6048 68.2322 81.9599 68.7522C83.5549 69.3648 84.1212 67.8093 84.1212 67.8093Z" fill="#FFFFFF" stroke-width="2px" style="animation-duration: 1s;"></path><path class="fillCls11" d="M81.035 63.4845C81.3896 63.4845 81.6755 63.198 81.6755 62.8444C81.6755 62.491 81.3896 62.2045 81.035 62.2045C80.6804 62.2045 80.3945 62.491 80.3945 62.8444C80.3945 63.198 80.6804 63.4845 81.035 63.4845Z" fill="#111111" stroke-width="2px" style="animation-duration: 1s;"></path><path class="fillCls11" d="M85.6385 63.5061C85.9932 63.5061 86.2808 63.2195 86.2808 62.8661C86.2808 62.5125 85.9932 62.226 85.6385 62.226C85.2839 62.226 84.998 62.5125 84.998 62.8661C84.998 63.2195 85.2839 63.5061 85.6385 63.5061Z" fill="#111111" stroke-width="2px" style="animation-duration: 1s;"></path><path class="fillCls8" d="M51.4444 114.403C51.0316 114.869 51.1533 115.812 52.6707 116.997C55.4284 119.156 56.06 119.398 56.547 119.368C57.3604 119.316 57.4398 118.683 57.4398 118.683C57.4398 118.683 58.9148 120.05 59.7847 119.806C60.4181 119.628 60.6033 118.789 60.6033 118.789C60.6033 118.789 61.302 119.706 62.5265 119.391C63.3364 119.182 63.1176 118.092 63.1176 118.092C63.1176 118.092 64.1321 119.069 65.249 118.447C66.1012 117.972 62.6447 114.079 60.6333 112.78C58.6237 111.481 53.0394 112.595 51.4444 114.403Z" fill="rgba(226,174,169,1)" stroke-width="2px" style="animation-duration: 1s;"></path><path class="fillCls2" d="M127.687 30H12.6339C10.6389 30 9.02344 31.6114 9.02344 33.5997V39.2597H131.298V33.5997C131.298 31.6114 129.682 30 127.687 30Z" fill="rgba(20,105,18,1)" stroke-width="2px" style="animation-duration: 1s;"></path><path class="fillCls3" d="M17.5855 36.9184C18.5173 36.9184 19.2728 36.1645 19.2728 35.2345C19.2728 34.3046 18.5173 33.5507 17.5855 33.5507C16.6538 33.5507 15.8984 34.3046 15.8984 35.2345C15.8984 36.1645 16.6538 36.9184 17.5855 36.9184Z" fill="#E1F7FE" stroke-width="2px" style="animation-duration: 1s;"></path><path class="fillCls3" d="M23.6637 36.9184C24.5956 36.9184 25.3509 36.1645 25.3509 35.2345C25.3509 34.3046 24.5956 33.5507 23.6637 33.5507C22.7319 33.5507 21.9766 34.3046 21.9766 35.2345C21.9766 36.1645 22.7319 36.9184 23.6637 36.9184Z" fill="#E1F7FE" stroke-width="2px" style="animation-duration: 1s;"></path><path class="fillCls3" d="M29.7437 36.9184C30.6755 36.9184 31.4309 36.1645 31.4309 35.2345C31.4309 34.3046 30.6755 33.5507 29.7437 33.5507C28.812 33.5507 28.0566 34.3046 28.0566 35.2345C28.0566 36.1645 28.812 36.9184 29.7437 36.9184Z" fill="#E1F7FE" stroke-width="2px" style="animation-duration: 1s;"></path><path class="fillCls6" d="M27.0851 85.4538C27.0851 85.4538 19.0813 77.171 19.9714 66.7432C20.8614 56.3153 20.7125 55.6494 20.7125 55.6494C20.7125 55.6494 26.5669 65.4114 27.6047 71.0333C28.6423 76.6537 30.4212 110.305 30.4212 110.305H29.5325L27.0851 85.4538Z" fill="#2E3716" stroke-width="2px" style="animation-duration: 1s;"></path><path class="fillCls6" d="M35.3583 59.6949C35.3583 59.6949 28.7793 60.9311 27.386 66.9556C25.9928 72.9801 28.3144 79.9337 29.3986 85.804C30.4828 91.6742 31.2212 110.242 31.2212 110.242H32.1646C32.1646 110.242 31.0845 85.5119 30.8424 81.1181C30.6005 76.7244 30.9394 67.3568 32.148 64.1214C33.358 60.8875 35.3583 59.6949 35.3583 59.6949Z" fill="#2E3716" stroke-width="2px" style="animation-duration: 1s;"></path><path class="fillCls6" d="M38.0176 66.7223C38.0176 66.7223 38.1229 59.4998 39.2399 55.0512C40.3582 50.6029 41.8664 46.7521 46.9627 43.5522C51.0119 41.0101 53.2245 41.1452 53.2245 41.1452C53.2245 41.1452 53.5932 47.5859 50.1138 54.1138C46.6327 60.6419 42.5321 63.5974 41.5382 65.5897C40.5456 67.5833 38.0176 66.7223 38.0176 66.7223Z" fill="#2E3716" stroke-width="2px" style="animation-duration: 1s;"></path><path class="fillCls6" d="M41.2578 75.7205C41.2578 75.7205 38.1666 79.9478 36.7364 84.8602C35.3064 89.7724 34.9042 93.9998 35.3623 100.798C35.8203 107.596 35.7055 110.624 35.7055 110.624C35.7055 110.624 35.0191 110.909 35.0191 110.739C35.0191 110.568 33.0735 91.8302 33.3018 84.6895C33.5303 77.5489 33.9884 72.979 34.8469 69.2662C35.7056 65.5532 36.735 65.2681 36.735 65.2681L41.2578 75.7205Z" fill="#2E3716" stroke-width="2px" style="animation-duration: 1s;"></path><path class="fillCls6" d="M36.5055 77.5995C36.5055 77.5995 37.7661 81.8106 35.9354 86.3572C34.4928 89.9391 34.2208 89.7425 34.2208 91.803C34.2208 93.8622 35.0959 110.409 35.0959 110.409L34.0909 110.347C34.0909 110.347 33.2733 92.8905 32.542 90.9298C31.9498 89.3441 30.8984 88.3808 30.8984 88.3808L36.5055 77.5995Z" fill="#2E3716" stroke-width="2px" style="animation-duration: 1s;"></path><path class="fillCls5" d="M35.3579 59.6949C35.3579 59.6949 32.5716 65.7207 31.8742 71.9008C31.1783 78.0807 31.1003 86.3458 31.1003 86.3458C31.1003 86.3458 29.096 73.5776 29.6293 69.1962C30.6356 60.9311 35.3579 59.6949 35.3579 59.6949Z" fill="#586035" stroke-width="2px" style="animation-duration: 1s;"></path><path class="fillCls5" d="M35.4917 76.2989C34.0833 75.3329 31.3175 74.5728 28.6937 77.0126C26.07 79.4524 25.6529 83.737 26.785 88.4979C27.9184 93.2589 29.1695 95.341 29.1695 95.341C29.1695 95.341 30.8676 90.5966 34.2379 84.5695C36.8972 79.8194 37.2185 77.4848 35.4917 76.2989Z" fill="#586035" stroke-width="2px" style="animation-duration: 1s;"></path><path class="fillCls5" d="M11.5 82.3723C11.5 82.3723 18.1133 82.9837 22.1548 87.4444C26.1964 91.9049 32.565 110.729 32.565 110.729L31.6463 110.79C31.6463 110.79 28.0258 98.4399 24.7812 96.5444C21.5369 94.6491 19.4614 95.8171 16.2155 90.9894C12.9697 86.1617 11.5 82.3723 11.5 82.3723Z" fill="#586035" stroke-width="2px" style="animation-duration: 1s;"></path><path class="fillCls4" d="M39.49 116.768H24.7415L22.8699 106.567C22.8166 106.04 23.2308 105.584 23.7612 105.584H40.4184C40.9476 105.584 41.3604 106.039 41.3098 106.564L39.49 116.768Z" fill="#2E2A17" stroke-width="2px" style="animation-duration: 1s;"></path><path class="fillCls5" d="M36.7344 65.2662C36.7344 65.2662 37.4209 71.5499 40.627 76.0051C43.832 80.4603 48.4688 81.204 48.4688 81.204C48.4688 81.204 47.4366 78.8623 46.5791 73.6062C45.7216 68.3514 45.9369 65.449 43.375 64.4092C39.9981 63.0392 36.7344 65.2662 36.7344 65.2662Z" fill="#586035" stroke-width="2px" style="animation-duration: 1s;"></path><path class="fillCls13" d="M109.421 36C102.009 36 96 42.0093 96 49.4213C96 53.058 97.4504 56.3571 99.7969 58.7729L96.8659 61.704H104.014C105.668 62.4356 107.499 62.8426 109.426 62.8426C116.838 62.8426 122.847 56.8333 122.847 49.4213C122.847 42.0093 116.833 36 109.421 36Z" fill="#8F93FB" stroke-width="2px" style="animation-duration: 1s;"></path><path class="fillCls14 chatting17-a" d="M115.485 51.152C114.529 51.152 113.753 50.3767 113.753 49.4203C113.753 48.4638 114.529 47.6885 115.485 47.6885C116.441 47.6885 117.217 48.4638 117.217 49.4203C117.217 50.3767 116.441 51.152 115.485 51.152Z" fill="rgba(33,107,20,1)" stroke-width="2px" style="animation-duration: 1s;"></path><path class="fillCls14 chatting17-b" d="M109.419 51.152C108.462 51.152 107.687 50.3767 107.687 49.4203C107.687 48.4638 108.462 47.6885 109.419 47.6885C110.375 47.6885 111.15 48.4638 111.15 49.4203C111.15 50.3767 110.375 51.152 109.419 51.152Z" fill="rgba(33,107,20,1)" stroke-width="2px" style="animation-duration: 1s;"></path><path class="fillCls14 chatting17-c" d="M103.362 51.152C102.406 51.152 101.63 50.3767 101.63 49.4203C101.63 48.4638 102.406 47.6885 103.362 47.6885C104.318 47.6885 105.094 48.4638 105.094 49.4203C105.094 50.3767 104.318 51.152 103.362 51.152Z" fill="rgba(33,107,20,1)" stroke-width="2px" style="animation-duration: 1s;"></path></svg>