<svg width="150" height="150" viewBox="0 0 150 150" fill="none" xmlns="http://www.w3.org/2000/svg" style="width: 200px; height: 200px;"><style>
     .technology28-a {animation:technology28-a 4s infinite; transform: translate3d(0, -5px, 0);}
     .technology28-b {animation:technology28-a 4s 300ms infinite; transform: translate3d(0, -5px, 0);}
     .technology28-c {animation:technology28-a 4s 600ms infinite; transform: translate3d(0, -5px, 0);}
     @keyframes technology28-a {
         0%{transform: translate3d(0, -5px, 0);}
         50%{transform: translate3d(0, 4px, 0);}
         100%{transform: translate3d(0, -5px, 0);}
     }
     @media (prefers-reduced-motion: reduce) {
         .technology28-a, .technology28-b, .technology28-c {
             animation: none;
         }
     }
    </style><path class="fillCls1" d="M73.4085 120.141C73.3031 120.139 73.2017 120.102 73.12 120.036C73.0191 119.958 72.9537 119.843 72.9375 119.717C72.9213 119.591 72.9558 119.463 73.0333 119.362C75.4188 116.323 76.9767 113.591 78.2848 110.254C78.7847 108.955 79.0635 108.022 79.3616 107.022C79.8423 105.333 80.4203 103.672 81.093 102.05C82.2855 99.1552 83.228 96.8661 85.1323 94.2211C86.4018 92.4517 88.1428 90.0374 91.2492 88.1138C93.3364 86.8154 95.2022 86.094 98.6548 85.2478C99.463 85.0455 100.078 84.9015 100.636 84.7763C101.617 84.5456 102.271 84.3915 103.041 84.1319C103.162 84.0954 103.293 84.1065 103.406 84.1638C103.518 84.2211 103.605 84.32 103.647 84.4396C103.687 84.5598 103.678 84.6906 103.622 84.8037C103.566 84.9172 103.468 85.0039 103.349 85.0455C102.54 85.3249 101.868 85.4785 100.848 85.7092C100.3 85.8344 99.684 85.9789 98.886 86.1807C95.5388 86.9979 93.7405 87.7001 91.7592 88.9311C88.8161 90.7588 87.2099 92.9901 85.9115 94.7788C84.0747 97.3371 83.1509 99.578 81.9874 102.416C81.3222 104.005 80.7533 105.634 80.2849 107.292C79.9868 108.311 79.6983 109.273 79.1791 110.61C77.8422 114.034 76.236 116.843 73.7933 119.959C73.7462 120.015 73.6874 120.061 73.6209 120.092C73.5545 120.123 73.482 120.141 73.4085 120.141Z" fill="#000000" stroke-width="2px" style="animation-duration: 4s;"></path><path class="fillCls1" d="M94.8947 129.894C94.7812 129.893 94.6717 129.852 94.5855 129.778C94.4988 129.704 94.4415 129.602 94.4237 129.49C93.7986 125.21 93.0097 121.161 92.0865 117.467L92.0287 117.208C91.5957 115.496 91.0091 113.149 91.1344 110.062C91.2109 108.316 91.4948 106.585 91.9805 104.907C92.0165 104.784 92.0992 104.681 92.2112 104.62C92.3227 104.558 92.4546 104.544 92.5767 104.58C92.6979 104.618 92.7993 104.701 92.8607 104.812C92.9215 104.923 92.9372 105.054 92.9038 105.176C92.4358 106.779 92.1646 108.432 92.0961 110.1C91.9805 113.053 92.519 115.227 92.9616 116.977L93.0194 117.227C93.9522 120.959 94.7411 125.037 95.3759 129.345C95.3926 129.472 95.3596 129.599 95.2841 129.701C95.2091 129.804 95.097 129.873 94.9718 129.894H94.8947Z" fill="#000000" stroke-width="2px" style="animation-duration: 4s;"></path><path class="fillCls1" d="M82.9489 129.894C82.8541 129.897 82.7603 129.872 82.6797 129.821C82.5996 129.77 82.5367 129.696 82.4992 129.608C82.4617 129.521 82.4515 129.424 82.4698 129.331C82.4885 129.238 82.5347 129.152 82.6026 129.086C83.7555 127.873 84.8374 126.595 85.8438 125.258C86.9693 123.767 88.1329 122.228 89.191 119.958C89.6427 118.99 90.0255 117.99 90.3353 116.967C90.3738 116.845 90.459 116.743 90.5726 116.683C90.6288 116.654 90.6902 116.635 90.7536 116.63C90.8169 116.624 90.8808 116.631 90.9411 116.65C91.002 116.669 91.0583 116.7 91.1069 116.74C91.1556 116.781 91.1962 116.831 91.2256 116.887C91.255 116.944 91.2732 117.005 91.2788 117.068C91.2844 117.131 91.2778 117.195 91.2585 117.256C90.9285 118.316 90.53 119.353 90.0661 120.362C88.9603 122.728 87.7096 124.383 86.6134 125.835C85.5842 127.203 84.4765 128.51 83.2952 129.749C83.2034 129.842 83.0787 129.893 82.9489 129.894Z" fill="#000000" stroke-width="2px" style="animation-duration: 4s;"></path><path class="fillCls1" d="M71.341 128.143C71.2208 128.152 71.1001 128.139 70.985 128.104C69.7733 127.739 69.6288 125.286 70.11 123.045C70.5237 121.151 71.2928 119.679 72.1202 119.189C72.5045 118.968 72.8315 118.987 73.0338 119.054C74.2455 119.419 74.39 121.872 73.8992 124.104C73.4855 125.998 72.7261 127.479 71.8987 127.96C71.7313 128.067 71.5392 128.13 71.341 128.143ZM72.7357 119.968C72.6916 119.977 72.6495 119.993 72.6105 120.016C72.1202 120.304 71.4373 121.507 71.0525 123.247C70.5333 125.642 70.9658 127.085 71.2639 127.181C71.3166 127.184 71.3678 127.166 71.4084 127.133C71.889 126.844 72.5816 125.642 72.9664 123.901C73.4855 121.507 73.0531 120.064 72.755 119.977L72.7357 119.968Z" fill="#000000" stroke-width="2px" style="animation-duration: 4s;"></path><path class="fillCls1" d="M74.6682 128.143C74.5445 128.149 74.4203 128.133 74.3026 128.095C73.0909 127.739 72.9464 125.286 73.4372 123.046C73.8504 121.151 74.62 119.679 75.4373 119.189C75.5722 119.105 75.7232 119.049 75.8804 119.026C76.0376 119.003 76.1978 119.012 76.3514 119.054C77.5631 119.42 77.7071 121.872 77.2265 124.104C76.8128 125.998 76.0432 127.479 75.2162 127.96C75.0515 128.065 74.8629 128.128 74.6682 128.143ZM76.0528 119.977C76.0087 119.979 75.9656 119.992 75.9281 120.016C75.4469 120.304 74.7544 121.507 74.3797 123.247C73.8504 125.642 74.2834 127.085 74.5815 127.181C74.6337 127.184 74.6854 127.166 74.726 127.133C75.2162 126.844 75.8992 125.642 76.284 123.901C76.8031 121.507 76.3702 120.064 76.0721 119.977C76.0721 119.975 76.071 119.973 76.0695 119.971C76.0675 119.969 76.065 119.968 76.0624 119.968C76.0599 119.968 76.0579 119.969 76.0558 119.971C76.0538 119.973 76.0528 119.975 76.0528 119.977Z" fill="#000000" stroke-width="2px" style="animation-duration: 4s;"></path><path class="fillCls1" d="M68.052 127.903C67.9318 127.904 67.8116 127.888 67.696 127.855C66.4747 127.489 66.3403 125.037 66.821 122.806C67.2347 120.911 68.0038 119.429 68.8312 118.949C68.9645 118.861 69.1151 118.803 69.2723 118.778C69.43 118.754 69.5912 118.762 69.7448 118.804C70.9565 119.17 71.101 121.632 70.6103 123.863C70.1971 125.758 69.4274 127.23 68.6097 127.72C68.4378 127.817 68.2482 127.879 68.052 127.903ZM69.4467 119.728C69.4016 119.733 69.3585 119.749 69.3215 119.776C68.8312 120.064 68.1483 121.266 67.7635 123.007C67.2443 125.402 67.6671 126.845 67.9749 126.931C68.0266 126.938 68.0778 126.924 68.1194 126.893C68.6005 126.604 69.2926 125.402 69.6774 123.661C70.1971 121.266 69.7641 119.824 69.466 119.728H69.4467Z" fill="#000000" stroke-width="2px" style="animation-duration: 4s;"></path><path class="fillCls1" d="M64.896 127.826C64.7789 127.828 64.6618 127.812 64.5498 127.778C63.3573 127.422 63.2803 125.095 63.7229 123.084C64.0975 121.324 64.819 119.958 65.5886 119.507C65.7143 119.422 65.8568 119.367 66.0064 119.343C66.1559 119.32 66.3085 119.33 66.454 119.372C67.6561 119.728 67.7236 122.065 67.2815 124.075C66.9063 125.825 66.1848 127.201 65.4152 127.653C65.2591 127.752 65.0806 127.812 64.896 127.826ZM66.1752 120.295C66.1372 120.299 66.1012 120.312 66.0692 120.333C65.6368 120.594 65.0116 121.69 64.6557 123.286C64.1939 125.431 64.569 126.787 64.8286 126.864C64.8666 126.86 64.9026 126.847 64.9346 126.826C65.3676 126.566 65.9927 125.469 66.3481 123.873C66.81 121.719 66.4348 120.372 66.1848 120.295H66.1752Z" fill="#000000" stroke-width="2px" style="animation-duration: 4s;"></path><path class="fillCls1" d="M103.406 84.9979C103.315 85.0004 103.226 84.9761 103.149 84.9279C103.072 84.8802 103.011 84.8108 102.973 84.7281C102.946 84.6708 102.93 84.6085 102.927 84.5451C102.923 84.4812 102.933 84.4179 102.954 84.358C102.976 84.2977 103.009 84.2429 103.052 84.1958C103.094 84.1486 103.147 84.1106 103.204 84.0837C104.185 83.632 104.647 82.728 104.733 82.4198C105.185 80.9196 104.897 79.5152 104.733 78.7654V78.7365C104.522 77.7073 104.156 76.3607 103.954 75.9663C103.919 75.9105 103.896 75.8481 103.886 75.7827C103.877 75.7178 103.88 75.6514 103.897 75.5875C103.914 75.5236 103.944 75.4643 103.985 75.4126C104.026 75.3609 104.077 75.3183 104.135 75.2874C104.193 75.256 104.257 75.2372 104.323 75.2321C104.389 75.2265 104.455 75.2352 104.517 75.2565C104.58 75.2778 104.637 75.3117 104.686 75.3558C104.734 75.4004 104.773 75.4542 104.8 75.5145C105.118 76.1107 105.512 77.7458 105.676 78.5347V78.5631C105.839 79.3423 106.185 80.9678 105.657 82.6991C105.483 83.2568 104.868 84.3722 103.608 84.9593C103.544 84.9857 103.475 84.9989 103.406 84.9979Z" fill="#000000" stroke-width="2px" style="animation-duration: 4s;"></path><path class="fillCls1" d="M109.186 92.0956H109.148C106.474 91.9126 103.964 91.076 101.887 89.6717C101.191 89.2083 100.54 88.6805 99.9439 88.0944C99.8882 88.0538 99.8415 88.0016 99.8081 87.9418C99.7741 87.882 99.7538 87.815 99.7477 87.7466C99.7422 87.6782 99.7508 87.6092 99.7741 87.5443C99.7974 87.4794 99.8339 87.4201 99.8821 87.3709C99.9302 87.3212 99.988 87.2827 100.052 87.2579C100.116 87.233 100.185 87.2219 100.254 87.2259C100.323 87.2295 100.39 87.2482 100.451 87.2802C100.512 87.3121 100.565 87.3572 100.607 87.4115C101.17 87.9464 101.775 88.4356 102.416 88.8736C104.387 90.201 106.676 90.9604 109.215 91.1435C109.329 91.1627 109.433 91.2231 109.507 91.3128C109.58 91.4025 109.619 91.5161 109.615 91.6322C109.612 91.7478 109.566 91.8588 109.488 91.944C109.409 92.0292 109.302 92.0829 109.186 92.0956Z" fill="#000000" stroke-width="2px" style="animation-duration: 4s;"></path><path class="fillCls1" d="M144.831 131.894H83.7194C83.5917 131.894 83.4695 131.945 83.3792 132.035C83.289 132.125 83.2383 132.247 83.2383 132.375C83.2383 132.502 83.289 132.625 83.3792 132.715C83.4695 132.805 83.5917 132.856 83.7194 132.856H144.831C144.958 132.856 145.081 132.805 145.171 132.715C145.261 132.625 145.312 132.502 145.312 132.375C145.309 132.248 145.258 132.127 145.168 132.038C145.078 131.948 144.958 131.897 144.831 131.894Z" fill="#000000" stroke-width="2px" style="animation-duration: 4s;"></path><path class="fillCls1" d="M18.2122 131.894H4.67034C4.54283 131.894 4.42049 131.945 4.3303 132.035C4.2401 132.125 4.18945 132.247 4.18945 132.375C4.18945 132.502 4.2401 132.625 4.3303 132.715C4.42049 132.805 4.54283 132.856 4.67034 132.856H18.2122C18.3398 132.856 18.4621 132.805 18.5523 132.715C18.6424 132.625 18.6931 132.502 18.6931 132.375C18.6907 132.248 18.6392 132.127 18.5495 132.038C18.4599 131.948 18.339 131.897 18.2122 131.894Z" fill="#000000" stroke-width="2px" style="animation-duration: 4s;"></path><path class="fillCls1" d="M58.7702 133H22.4438C20.7607 133 19.0872 131.692 18.6351 130.009L12.2489 106.157C12.0181 105.301 12.1528 104.464 12.624 103.848C13.0953 103.233 13.7974 102.916 14.6437 102.916H50.9605C52.6533 102.916 54.3173 104.233 54.769 105.907L61.1652 129.759C61.3863 130.615 61.2514 131.461 60.7804 132.077C60.3089 132.692 59.6067 133 58.7702 133ZM14.6437 103.877C14.1051 103.877 13.6627 104.079 13.3838 104.435C13.1049 104.791 13.0184 105.339 13.1722 105.907L19.5681 129.759C19.8951 130.999 21.2127 132.038 22.4438 132.038H58.7702C59.299 132.038 59.7416 131.846 60.0205 131.49C60.2993 131.134 60.386 130.586 60.2324 130.009L53.8458 106.157C53.5091 104.926 52.1914 103.877 50.9605 103.877H14.6437Z" fill="#000000" stroke-width="2px" style="animation-duration: 4s;"></path><path class="fillCls1" d="M80.4682 133H59.3088C59.1815 133 59.0593 132.949 58.9691 132.859C58.8788 132.769 58.8281 132.647 58.8281 132.519C58.8307 132.392 58.8819 132.271 58.9716 132.182C59.0613 132.092 59.182 132.041 59.3088 132.038H80.4682C80.5741 132.038 80.6791 132.017 80.7774 131.977C80.8753 131.936 80.9645 131.876 81.0396 131.801C81.1146 131.726 81.1739 131.638 81.2145 131.539C81.255 131.441 81.2758 131.336 81.2758 131.23V129.759C81.2733 129.545 81.1876 129.341 81.0365 129.19C80.8854 129.039 80.6816 128.953 80.4682 128.951H60.3187C60.1914 128.951 60.0687 128.9 59.979 128.81C59.8888 128.72 59.8381 128.598 59.8381 128.47C59.8381 128.342 59.8888 128.22 59.979 128.13C60.0687 128.039 60.1914 127.989 60.3187 127.989H80.4682C80.9366 127.991 81.3853 128.179 81.7169 128.51C82.048 128.842 82.2351 129.29 82.2376 129.759V131.23C82.2376 131.699 82.0515 132.15 81.7194 132.482C81.3874 132.813 80.9377 133 80.4682 133Z" fill="#000000" stroke-width="2px" style="animation-duration: 4s;"></path><path class="fillCls1" d="M90.6145 111.456C90.5957 111.395 90.5653 111.339 90.5242 111.29C90.4837 111.241 90.434 111.2 90.3777 111.171C90.3214 111.141 90.2596 111.123 90.1962 111.118C90.1328 111.113 90.0689 111.12 90.0081 111.139C89.7876 111.214 89.5579 111.263 89.3257 111.283C88.5272 111.36 87.7576 111.091 86.9499 110.466L86.7289 110.292C86.4302 110.042 86.1514 109.773 85.8533 109.494C85.4279 109.07 84.9752 108.675 84.4971 108.311C83.9287 107.895 83.2767 107.606 82.5862 107.465C81.8957 107.324 81.1828 107.334 80.4964 107.494C80.3711 107.521 80.2627 107.598 80.1942 107.707C80.1253 107.815 80.103 107.946 80.1308 108.071C80.1587 108.196 80.2353 108.304 80.3438 108.373C80.4518 108.442 80.5831 108.464 80.7078 108.436C81.0013 108.368 81.301 108.332 81.6021 108.33C82.4392 108.332 83.2539 108.597 83.9297 109.09L84.276 109.35C84.5838 109.609 84.8819 109.898 85.1896 110.187C85.5628 110.553 85.9547 110.9 86.3633 111.225C87.248 111.918 88.1424 112.254 89.0656 112.254C89.4874 112.252 89.9057 112.183 90.3062 112.052C90.366 112.034 90.4213 112.004 90.469 111.964C90.5171 111.923 90.5562 111.874 90.5851 111.819C90.6135 111.763 90.6312 111.703 90.6358 111.64C90.6408 111.578 90.6337 111.516 90.6145 111.456Z" fill="#000000" stroke-width="2px" style="animation-duration: 4s;"></path><path class="fillCls1" d="M139.243 109.023C139.155 108.93 139.035 108.875 138.907 108.87C138.78 108.864 138.655 108.909 138.56 108.994C138.397 109.149 138.216 109.284 138.021 109.398C137.319 109.812 136.502 109.898 135.502 109.667L135.107 109.571C134.78 109.475 134.444 109.359 134.097 109.244L133.943 109.186C133.884 109.165 133.821 109.156 133.758 109.16C133.695 109.164 133.634 109.18 133.578 109.207C133.521 109.235 133.471 109.274 133.43 109.322C133.388 109.369 133.357 109.425 133.337 109.485C133.297 109.606 133.306 109.737 133.362 109.853C133.417 109.968 133.516 110.056 133.635 110.1L133.79 110.148C134.27 110.311 134.771 110.485 135.28 110.61C135.691 110.702 136.11 110.75 136.53 110.754C137.527 110.766 138.489 110.39 139.214 109.706C139.261 109.663 139.299 109.611 139.326 109.553C139.353 109.496 139.368 109.434 139.371 109.37C139.374 109.307 139.363 109.243 139.342 109.184C139.32 109.124 139.286 109.069 139.243 109.023Z" fill="#000000" stroke-width="2px" style="animation-duration: 4s;"></path><path class="fillCls1" d="M105.475 76.2739C105.192 76.2729 104.91 76.2536 104.629 76.2166C102.59 75.9276 100.984 74.6008 99.7044 72.1383C98.4252 69.6763 98.1656 66.6273 97.9831 63.6649C97.8194 61.0777 97.685 58.3273 97.9446 55.7497C97.9588 55.6235 98.0227 55.5084 98.1215 55.4293C98.2209 55.3497 98.3471 55.3132 98.4734 55.3264C98.5352 55.3325 98.5956 55.3507 98.6503 55.3801C98.7056 55.4095 98.7543 55.4496 98.7933 55.4977C98.8328 55.5464 98.8623 55.6017 98.88 55.6615C98.8977 55.7213 98.9033 55.7837 98.8967 55.846C98.6564 58.3562 98.7811 61.0585 98.9449 63.6076C99.1178 66.464 99.387 69.436 100.561 71.6962C101.734 73.9564 103.032 75.0236 104.754 75.2644C105.706 75.3892 106.446 75.2355 107.043 75.1103C107.803 74.9471 108.342 74.7255 109.091 74.4081C109.859 74.0867 110.605 73.714 111.323 73.2927C111.434 73.2289 111.566 73.2116 111.69 73.2441C111.814 73.276 111.92 73.3556 111.986 73.4656C112.047 73.5761 112.063 73.7054 112.031 73.8271C111.998 73.9493 111.92 74.0537 111.813 74.1196C111.053 74.5602 110.267 74.9526 109.457 75.2928C108.697 75.6198 108.091 75.8703 107.235 76.0528C106.658 76.1912 106.068 76.2652 105.475 76.2739Z" fill="#000000" stroke-width="2px" style="animation-duration: 4s;"></path><ellipse class="fillCls1" cx="100.296" cy="60.5386" rx="0.995117" ry="1.22949" fill="#000000" style="animation-duration: 4s;"></ellipse><ellipse class="fillCls1" cx="108.296" cy="60.5386" rx="0.995117" ry="1.22949" fill="#000000" style="animation-duration: 4s;"></ellipse><path class="fillCls1" d="M104.686 67.695L104.378 67.6758C104.157 67.6504 103.945 67.5784 103.753 67.4638C103.563 67.3493 103.398 67.1951 103.272 67.0121C103.003 66.5888 103.022 66.1081 103.032 65.7522C103.051 65.0886 103.061 64.4153 103.061 63.7709C103.061 63.1265 103.08 62.2418 103.109 61.4818C103.111 61.4189 103.125 61.3566 103.151 61.2988C103.177 61.2415 103.214 61.1893 103.26 61.1462C103.306 61.1026 103.36 61.0691 103.419 61.0463C103.478 61.024 103.541 61.0134 103.604 61.0154C103.667 61.0174 103.73 61.0316 103.787 61.0575C103.845 61.0833 103.897 61.1203 103.94 61.1665C103.984 61.2126 104.017 61.2663 104.039 61.3257C104.062 61.3845 104.073 61.4473 104.071 61.5107C104.042 62.2611 104.032 63.0302 104.023 63.7805C104.013 64.5309 104.013 65.1078 103.994 65.7811C103.984 66.0889 103.984 66.3388 104.08 66.4929C104.134 66.5578 104.199 66.6121 104.274 66.6516C104.348 66.6912 104.429 66.7155 104.513 66.7236C104.762 66.7399 105.012 66.717 105.254 66.6562C105.317 66.6344 105.385 66.6268 105.452 66.6329C105.519 66.639 105.584 66.6592 105.643 66.6922C105.702 66.7252 105.753 66.7698 105.793 66.824C105.834 66.8778 105.862 66.9396 105.877 67.0055C105.892 67.0709 105.893 67.1389 105.88 67.2053C105.867 67.2712 105.84 67.3335 105.801 67.3888C105.762 67.4441 105.712 67.4902 105.655 67.5247C105.596 67.5592 105.532 67.581 105.465 67.5891C105.211 67.656 104.949 67.6915 104.686 67.695Z" fill="#000000" stroke-width="2px" style="animation-duration: 4s;"></path><path class="fillCls1" d="M133.049 111.764C131.77 105.214 129.384 99.203 125.961 93.9039C125.047 92.4808 124.055 91.1093 122.989 89.7972C122.979 89.7972 122.979 89.7972 122.979 89.7876C122.671 89.4413 122.498 88.4025 122.527 87.0174C122.556 85.6323 122.45 84.1513 122.335 82.68L122.296 82.2471C122.229 81.266 122.114 80.2754 122.008 79.3136L121.893 78.294L121.864 77.9574C121.796 77.169 121.71 76.0917 120.844 75.5821C120.558 75.429 120.235 75.356 119.911 75.3702C119.615 75.359 119.32 75.4118 119.045 75.5243C118.488 75.7743 118.344 76.3127 118.247 76.659L118.218 76.7746C118.16 76.9611 118.112 77.1503 118.074 77.3419C117.305 74.7643 116.718 72.9082 116.631 72.6487C116.545 72.3886 116.295 71.5809 115.544 71.2924C115.155 71.1449 114.725 71.1414 114.333 71.2828C113.89 71.4557 113.573 71.7923 113.371 72.3024C113.169 72.8119 113.284 73.4563 113.477 74.0814L113.525 74.2644C113.669 74.7162 113.785 75.1877 113.9 75.6683C113.371 75.649 112.678 75.7261 112.169 76.2169C112.073 76.301 111.989 76.3984 111.918 76.5054C111.593 76.4141 111.251 76.3979 110.919 76.4572C110.55 76.5292 110.204 76.6874 109.909 76.9186C109.727 77.0565 109.565 77.2182 109.428 77.3997C109.343 77.4377 109.27 77.4975 109.216 77.5726C108.868 77.5183 108.512 77.5716 108.197 77.7267C107.764 77.9478 107.254 78.2844 107.052 79.0155C106.792 79.9773 107.071 80.8234 107.206 81.2371C107.225 81.2853 107.244 81.3624 107.254 81.3816C107.496 82.5792 107.83 83.7559 108.254 84.9017C108.62 85.902 109.11 87.0848 109.649 88.2195C110.188 89.3546 110.736 90.4416 111.341 91.5377C111.386 91.6108 111.448 91.6711 111.522 91.7132C111.596 91.7553 111.68 91.7776 111.765 91.7781C111.845 91.7786 111.925 91.7588 111.996 91.7208C112.078 91.6746 112.146 91.6057 112.19 91.522C112.235 91.4384 112.254 91.3436 112.245 91.2493C112.237 91.1854 112.217 91.124 112.188 91.0668C111.582 89.999 111.024 88.9024 110.515 87.8159C110.005 86.7289 109.514 85.5461 109.149 84.5651C108.75 83.4644 108.431 82.3358 108.197 81.189C108.176 81.1013 108.15 81.0146 108.12 80.9294C108.004 80.5927 107.793 79.9484 107.985 79.2654C108.062 78.9673 108.235 78.7848 108.63 78.5825C109.024 78.3807 109.226 78.544 109.36 78.5921L110.188 80.9776C110.218 81.0729 110.279 81.156 110.36 81.2148C110.441 81.2736 110.539 81.3051 110.639 81.3046C110.692 81.3041 110.744 81.2944 110.793 81.2757C110.854 81.2549 110.909 81.2229 110.957 81.1809C111.004 81.1388 111.043 81.0876 111.071 81.0303C111.099 80.973 111.115 80.9106 111.118 80.8473C111.122 80.7839 111.113 80.72 111.092 80.6602L110.178 78.0056C110.397 77.6998 110.723 77.4874 111.092 77.4093C111.337 77.3627 111.59 77.386 111.823 77.4768L112.727 80.1025C112.758 80.1978 112.818 80.2809 112.899 80.3398C112.98 80.3986 113.078 80.43 113.179 80.4295C113.231 80.429 113.283 80.4194 113.332 80.4006C113.393 80.3798 113.448 80.3474 113.496 80.3053C113.543 80.2632 113.582 80.212 113.61 80.1547C113.638 80.0974 113.654 80.0356 113.657 79.9722C113.661 79.9083 113.652 79.8449 113.631 79.7851L112.707 77.0823C112.702 77.0772 112.698 77.0707 112.698 77.0631C112.737 77.0093 112.778 76.9581 112.823 76.9089C113.236 76.5246 113.986 76.6204 114.265 76.6782L115.15 79.2654C115.184 79.3582 115.245 79.4388 115.326 79.4956C115.407 79.5524 115.503 79.5828 115.602 79.5828C115.654 79.5869 115.707 79.5803 115.756 79.5636C115.816 79.5433 115.872 79.5108 115.92 79.4687C115.967 79.4267 116.006 79.3755 116.034 79.3182C116.062 79.2609 116.078 79.1985 116.081 79.1351C116.084 79.0718 116.076 79.0079 116.055 78.9481L114.881 75.534C114.874 75.4904 114.853 75.4503 114.824 75.4184C114.718 74.9281 114.592 74.447 114.448 73.9851L114.391 73.7929C114.217 73.2256 114.15 72.9564 114.265 72.6583C114.297 72.5549 114.351 72.4595 114.422 72.3784C114.493 72.2973 114.581 72.2319 114.679 72.1868C114.844 72.1264 115.024 72.1264 115.189 72.1868C115.516 72.312 115.66 72.7541 115.718 72.9468C115.776 73.1389 116.775 76.2549 117.843 79.9965C117.882 80.1071 117.96 80.1998 118.062 80.2576C118.165 80.3149 118.284 80.3327 118.399 80.3078C118.514 80.283 118.615 80.2171 118.685 80.1228C118.754 80.028 118.787 79.9113 118.776 79.7947C118.786 79.7755 118.786 79.7466 118.795 79.7177C118.807 79.6604 118.814 79.6026 118.815 79.5443C118.824 79.4196 118.824 79.304 118.824 79.1787V79.1022C118.833 78.7929 118.858 78.4847 118.901 78.1789C118.949 77.7941 119.03 77.4144 119.142 77.0438L119.171 76.9186C119.257 76.6108 119.315 76.4668 119.44 76.409C119.589 76.3477 119.75 76.3213 119.911 76.332H119.921C120.123 76.332 120.267 76.3512 120.353 76.409C120.796 76.6686 120.854 77.3997 120.902 78.0441C120.909 78.1602 120.922 78.2758 120.94 78.3904C120.978 78.7366 121.007 79.0829 121.046 79.4196C121.161 80.3717 121.267 81.3527 121.344 82.3241L121.373 82.7566C121.488 84.2091 121.594 85.575 121.566 86.9981C121.537 88.4218 121.71 89.5468 122.075 90.1719L122.162 90.3068L122.239 90.4031C122.239 90.4056 122.24 90.4082 122.241 90.4097C122.243 90.4117 122.245 90.4127 122.248 90.4127C123.286 91.701 124.256 93.043 125.153 94.4327C131.068 103.579 133.742 114.582 133.116 127.153C133.01 127.864 132.597 129.557 131.135 130.49C129.366 131.615 127.288 130.865 126.394 130.547C123.528 129.509 121.787 127.008 120.055 123.575C117.036 117.583 115.747 112.149 114.89 107.619C114.766 106.936 114.641 106.311 114.515 105.705C113.89 102.512 113.438 100.203 113.044 94.5483C113.041 94.492 113.028 94.4362 113.005 94.3845C112.957 94.2846 112.876 94.2045 112.776 94.1574C112.675 94.1107 112.562 94.1001 112.454 94.127C112.347 94.1543 112.252 94.2177 112.186 94.3064C112.12 94.3957 112.087 94.5047 112.092 94.6157C112.477 100.329 112.967 102.781 113.573 105.888C113.698 106.494 113.814 107.119 113.948 107.802C114.814 112.389 116.121 117.91 119.19 124.008C120.777 127.153 122.71 130.24 126.067 131.452C126.624 131.644 127.731 132.048 128.99 132.048C129.932 132.063 130.859 131.803 131.654 131.298C133.463 130.153 133.953 128.105 134.078 127.278V127.23C134.347 121.834 134.001 116.64 133.049 111.764Z" fill="#000000" stroke-width="2px" style="animation-duration: 4s;"></path><path class="fillCls1" d="M138.079 128.133H138.011C137.948 128.124 137.889 128.102 137.834 128.069C137.78 128.037 137.733 127.994 137.695 127.943C137.658 127.892 137.631 127.834 137.616 127.773C137.601 127.711 137.598 127.647 137.607 127.585C138.608 120.929 138.886 108.936 138.521 105.224C138.358 103.55 138.136 102.031 137.896 100.944C137.145 97.5675 135.761 91.297 130.769 88.2768C129.288 87.3825 127.576 86.8248 125.662 86.6321C125.534 86.6194 125.417 86.5566 125.336 86.4572C125.255 86.3583 125.216 86.2311 125.229 86.1033C125.242 85.9756 125.305 85.8584 125.404 85.7773C125.503 85.6962 125.63 85.6577 125.758 85.6703C127.816 85.8823 129.673 86.4881 131.269 87.4595C136.607 90.6911 138.059 97.2217 138.838 100.732C139.088 101.857 139.319 103.425 139.483 105.127C139.848 108.888 139.569 121.006 138.559 127.729C138.539 127.842 138.48 127.945 138.392 128.018C138.304 128.092 138.193 128.133 138.079 128.133Z" fill="#000000" stroke-width="2px" style="animation-duration: 4s;"></path><path class="fillCls1" d="M105.955 71.8404C105.587 71.8424 105.22 71.81 104.858 71.7441C104.732 71.7202 104.62 71.6467 104.548 71.5402C104.476 71.4338 104.449 71.303 104.474 71.1767C104.497 71.0505 104.571 70.9389 104.677 70.867C104.784 70.795 104.915 70.7681 105.041 70.7919C105.811 70.9455 106.608 70.8999 107.355 70.6596C108.102 70.4188 108.775 69.9909 109.311 69.417C109.354 69.3708 109.405 69.3338 109.462 69.3074C109.519 69.2816 109.581 69.2674 109.644 69.2659C109.706 69.2638 109.769 69.2745 109.827 69.2973C109.886 69.3201 109.939 69.3541 109.984 69.3977C110.032 69.4388 110.071 69.4895 110.099 69.5462C110.127 69.603 110.142 69.6649 110.145 69.7277C110.147 69.7911 110.137 69.854 110.114 69.9128C110.092 69.9721 110.058 70.0259 110.013 70.071C109.496 70.6312 108.869 71.0784 108.17 71.3826C107.471 71.6873 106.717 71.8434 105.955 71.8404Z" fill="#000000" stroke-width="2px" style="animation-duration: 4s;"></path><path class="fillCls1" d="M100.194 44.064C98.7323 45.6798 97.7229 47.4879 97.3766 49.6616C97.1069 51.3737 96.4529 55.8941 99.0882 56.1633C101.166 56.3844 103.436 56.067 105.532 56.0092C108.167 55.9321 111.678 55.163 114.131 56.3844C115.015 56.8655 115.65 57.7213 116.054 58.6446C117.035 60.9047 117.276 63.4727 117.074 65.9159C116.852 68.5892 117.179 70.6765 118.613 73.0518C118.968 73.6293 119.382 74.2062 119.969 74.5429C120.555 74.8795 121.229 74.947 121.892 74.9946C125.691 75.312 132.28 75.7353 134.232 71.6479C135.607 68.7434 135.982 64.9252 136.223 61.7509C136.492 58.3175 136.3 54.836 135.405 51.4985C133.924 46.0068 130.289 40.8228 125.056 38.351C118.68 35.3214 111.938 36.0235 105.783 39.4186C104.388 40.188 103.253 41.2075 102.06 42.2366C101.405 42.8112 100.783 43.4213 100.194 44.064Z" fill="#000000" stroke-width="2px" style="animation-duration: 4s;"></path><path class="fillCls1" d="M125.662 75.6777C124.21 75.6777 122.873 75.5626 121.854 75.4759C121.103 75.4181 120.382 75.3319 119.737 74.9568C119.093 74.5816 118.564 73.889 118.208 73.3024C116.814 71.0134 116.352 68.8591 116.593 65.8775C116.814 63.2518 116.467 60.8182 115.611 58.8278C115.323 58.1737 114.804 57.2982 113.909 56.8175C112.178 55.9521 109.773 56.1635 107.648 56.346C106.907 56.4134 106.205 56.4712 105.542 56.4905C104.878 56.5098 104.214 56.5483 103.513 56.5965C102.022 56.6923 100.492 56.7983 99.0399 56.6441C98.7215 56.6173 98.4122 56.524 98.1323 56.3698C97.8525 56.2157 97.6076 56.0048 97.4144 55.7498C96.328 54.3363 96.5683 51.7106 96.9049 49.5848C97.2416 47.4593 98.1937 45.5646 99.8384 43.7468C100.438 43.0835 101.077 42.4572 101.752 41.8714L101.935 41.7079C103.041 40.7461 104.186 39.7458 105.551 38.9956C108.754 37.226 112.034 36.2161 115.304 35.9949C118.737 35.7641 122.084 36.4085 125.268 37.9184C130.269 40.2844 134.232 45.3145 135.866 51.3739C136.713 54.5284 137.002 58.0389 136.703 61.7896C136.444 65.1272 136.049 68.9261 134.664 71.8499C133.145 75.0333 129.115 75.6777 125.662 75.6777ZM110.485 55.221C111.851 55.221 113.198 55.3842 114.342 55.9612H114.352C115.496 56.5772 116.15 57.6541 116.487 58.4526C117.41 60.5779 117.785 63.1747 117.554 65.9546C117.324 68.7339 117.737 70.6767 119.026 72.802C119.324 73.2928 119.699 73.8312 120.209 74.1197C120.718 74.4082 121.296 74.466 121.931 74.5142C125.182 74.7834 131.933 75.3507 133.789 71.4367C135.117 68.6569 135.492 64.9639 135.751 61.7227C136.03 58.0774 135.761 54.6724 134.934 51.6239C133.376 45.8339 129.606 41.0346 124.855 38.784C118.901 35.9661 112.38 36.3315 106.013 39.842C104.744 40.5441 103.685 41.4578 102.57 42.4388L102.377 42.6023C101.736 43.1642 101.126 43.7614 100.55 44.3912C99.0399 46.0647 98.1552 47.8152 97.8571 49.7292C97.6938 50.7584 97.203 53.8937 98.1744 55.1632C98.2885 55.3133 98.4335 55.437 98.5993 55.5262C98.7651 55.6159 98.9481 55.6692 99.1362 55.6824C100.512 55.8269 102.002 55.7305 103.445 55.6342C104.128 55.5962 104.839 55.548 105.513 55.5287C106.186 55.5095 106.84 55.4517 107.561 55.3842C108.504 55.3072 109.504 55.221 110.485 55.221Z" fill="#000000" stroke-width="2px" style="animation-duration: 4s;"></path><path class="fillCls1" d="M107.312 58.7797C107.192 58.7797 107.077 58.7355 106.989 58.6554C106.9 58.5753 106.845 58.4658 106.832 58.3472C106.821 58.2286 106.853 58.1094 106.924 58.0136C106.995 57.9173 107.099 57.8508 107.215 57.8275C107.62 57.7393 108.032 57.6846 108.446 57.6638C108.856 57.6349 109.267 57.6349 109.678 57.6638C110.12 57.6846 110.561 57.7393 110.995 57.8275C111.057 57.8387 111.115 57.8625 111.167 57.897C111.22 57.9315 111.265 57.9756 111.3 58.0278C111.335 58.0795 111.359 58.1378 111.371 58.1991C111.383 58.2605 111.383 58.3239 111.37 58.3852C111.347 58.5099 111.275 58.6205 111.17 58.6925C111.066 58.7644 110.937 58.7923 110.812 58.77C110.056 58.6205 109.283 58.5687 108.514 58.6159C108.139 58.6428 107.766 58.6945 107.398 58.77L107.312 58.7797Z" fill="#000000" stroke-width="2px" style="animation-duration: 4s;"></path><path class="fillCls1" d="M101.204 58.587H101.175C100.79 58.5581 100.396 58.5484 100.011 58.5388C99.6265 58.5292 99.1068 58.5388 98.9147 58.5388C98.7879 58.5393 98.6657 58.4901 98.5745 58.4024C98.4827 58.3142 98.429 58.1946 98.4239 58.0678C98.4229 58.0044 98.434 57.9416 98.4568 57.8828C98.4802 57.8239 98.5141 57.7702 98.5582 57.7251C98.6018 57.6795 98.6541 57.6429 98.7119 57.6176C98.7697 57.5922 98.832 57.5786 98.8954 57.577C99.0972 57.577 99.5109 57.5674 100.03 57.577C100.55 57.5867 100.838 57.5963 101.233 57.6252C101.296 57.6288 101.357 57.645 101.415 57.6729C101.471 57.7002 101.522 57.7388 101.564 57.7864C101.606 57.8336 101.639 57.8888 101.659 57.9487C101.68 58.0085 101.688 58.0719 101.684 58.1352C101.675 58.2569 101.62 58.3705 101.531 58.4541C101.443 58.5378 101.325 58.5849 101.204 58.587Z" fill="#000000" stroke-width="2px" style="animation-duration: 4s;"></path><path class="fillCls3" d="M113.668 68.1279C113.358 67.8414 112.955 67.6777 112.533 67.666C112.208 67.666 111.89 67.7629 111.619 67.9433C111.349 68.1238 111.138 68.3809 111.014 68.6815C110.889 68.9822 110.857 69.3127 110.92 69.6316C110.984 69.9505 111.14 70.2436 111.37 70.4738C111.601 70.7039 111.894 70.8606 112.213 70.924C112.531 70.9873 112.862 70.9549 113.163 70.8302C113.463 70.706 113.72 70.495 113.901 70.2243C114.081 69.9541 114.178 69.6362 114.178 69.3107C114.179 69.1535 114.153 68.9974 114.101 68.8493L113.928 68.9163L113.668 68.1279Z" fill="#FFEF00" stroke-width="2px" style="animation-duration: 4s;"></path><path class="fillCls3" d="M120.95 51.8061C120.638 51.8076 120.326 51.8335 120.017 51.8832C119.614 50.5954 118.85 49.4502 117.815 48.5843C117.728 48.5074 117.632 48.4401 117.526 48.3631L118.478 47.4975C118.585 47.4015 118.651 47.2687 118.663 47.126C118.675 46.9833 118.634 46.8412 118.546 46.7281C117.161 44.968 115.112 42.8425 112.246 41.1594C109.582 39.5821 107.552 39.1685 106.62 39.0242C105.475 38.8415 104.571 38.6972 103.551 38.9665C101.166 39.6013 99.868 42.0442 99.3006 43.4581C99.2647 43.5494 99.2535 43.6484 99.2677 43.7454C99.2819 43.8425 99.3204 43.9342 99.3808 44.0116C99.4406 44.0892 99.5197 44.1497 99.6104 44.1876C99.7007 44.2254 99.7995 44.2391 99.8969 44.2275C101.126 44.0484 102.377 44.0679 103.599 44.2852C104.604 44.4725 105.584 44.7692 106.523 45.17C107.459 45.5492 108.363 46.0027 109.226 46.5261C110.259 47.1492 111.235 47.8638 112.14 48.6613C112.87 49.2811 113.564 49.9424 114.217 50.6426C114.268 50.6963 114.327 50.7394 114.394 50.7703C114.461 50.8008 114.533 50.8175 114.606 50.8205C114.679 50.8231 114.752 50.8114 114.821 50.7855C114.89 50.7602 114.953 50.7212 115.006 50.6715L115.881 49.873C116.077 49.9901 116.264 50.1219 116.44 50.2674C117.334 50.9888 117.776 51.9506 117.988 52.6721C117.11 53.2343 116.41 54.0354 115.969 54.9804C115.529 55.926 115.366 56.977 115.5 58.0112C115.634 59.0455 116.059 60.0204 116.727 60.822C117.393 61.6241 118.274 62.2198 119.267 62.5397C119.318 62.4054 119.357 62.2801 119.382 62.1645L120.316 62.4053L120.21 62.7608C120.455 62.7917 120.702 62.8079 120.95 62.8089C121.673 62.8089 122.388 62.667 123.055 62.3901C123.723 62.1138 124.329 61.7087 124.84 61.1977C125.351 60.6871 125.756 60.0803 126.033 59.4131C126.309 58.7454 126.452 58.03 126.452 57.3075C126.452 56.5851 126.309 55.8697 126.033 55.2025C125.756 54.5348 125.351 53.9284 124.84 53.4179C124.329 52.9068 123.723 52.5017 123.055 52.2249C122.388 51.9486 121.673 51.8061 120.95 51.8061Z" fill="#FFEF00" stroke-width="2px" style="animation-duration: 4s;"></path><path class="fillCls3" d="M119.382 62.1646C119.35 62.2801 119.312 62.4054 119.267 62.5397C118.7 64.2037 117.007 66.8872 113.621 68.0026L113.669 68.1278L113.929 68.9162L114.102 68.8493C117.776 67.5605 119.613 64.5789 120.209 62.7613L120.315 62.4054L119.382 62.1646Z" fill="#FFEF00" stroke-width="2px" style="animation-duration: 4s;"></path><path class="fillCls4" d="M131.895 70.4939C131.81 70.4913 131.728 70.468 131.654 70.4269C131.544 70.3641 131.462 70.2601 131.428 70.1375C131.394 70.0148 131.409 69.884 131.472 69.7729C131.974 68.8928 132.371 67.9564 132.654 66.9834C132.886 66.2336 133.222 65.0984 133.184 63.7422C133.183 63.6145 133.232 63.4918 133.32 63.3985C133.407 63.3057 133.528 63.2494 133.655 63.2423C133.718 63.2408 133.781 63.252 133.84 63.2753C133.899 63.2981 133.952 63.3326 133.998 63.3762C134.043 63.4203 134.08 63.4725 134.105 63.5303C134.13 63.5881 134.144 63.6505 134.146 63.7133C134.184 65.2237 133.819 66.4546 133.578 67.2623C133.272 68.3021 132.845 69.3024 132.308 70.2439C132.267 70.3179 132.207 70.3798 132.135 70.4234C132.062 70.4675 131.98 70.4918 131.895 70.4939Z" fill="#FFFFFF" stroke-width="2px" style="animation-duration: 4s;"></path><path class="fillCls4" d="M133.991 61.2221H133.962C133.9 61.2186 133.838 61.2024 133.78 61.175C133.724 61.1471 133.673 61.1086 133.631 61.0614C133.589 61.0138 133.556 60.9585 133.536 60.8987C133.515 60.8389 133.507 60.7755 133.511 60.7126L133.626 58.7794C133.628 58.7156 133.644 58.6532 133.671 58.5954C133.698 58.5381 133.737 58.4864 133.785 58.4443C133.832 58.4022 133.887 58.3698 133.948 58.35C134.009 58.3297 134.072 58.3221 134.136 58.3272C134.199 58.3308 134.261 58.347 134.318 58.3749C134.375 58.4022 134.426 58.4408 134.467 58.4884C134.51 58.5356 134.542 58.5908 134.562 58.6507C134.583 58.7105 134.592 58.7739 134.588 58.8372L134.473 60.7704C134.465 60.8926 134.411 61.0077 134.322 61.0918C134.232 61.176 134.114 61.2226 133.991 61.2221Z" fill="#FFFFFF" stroke-width="2px" style="animation-duration: 4s;"></path><path class="fillCls4" d="M99.53 54.6819C99.4362 54.6824 99.3445 54.655 99.2659 54.6038C99.1868 54.5526 99.1249 54.4796 99.0874 54.3934C98.5297 53.0661 98.3279 51.6815 98.5201 50.3638C98.7122 49.046 99.1356 48.2958 99.4337 47.7091C99.8109 46.9453 100.272 46.2259 100.809 45.5644C100.85 45.5157 100.899 45.4755 100.955 45.4461C101.011 45.4166 101.072 45.3985 101.135 45.3926C101.198 45.3869 101.262 45.3935 101.322 45.4123C101.383 45.431 101.438 45.4614 101.487 45.5019C101.536 45.5423 101.576 45.5918 101.606 45.6478C101.635 45.7037 101.653 45.7649 101.659 45.8279C101.664 45.8909 101.658 45.9544 101.639 46.0148C101.62 46.0752 101.59 46.1313 101.55 46.1799C101.058 46.7817 100.636 47.4365 100.29 48.1323C100.03 48.6709 99.6263 49.4788 99.4722 50.5078C99.2608 51.941 99.6263 53.2009 99.9726 54.0086C99.998 54.0669 100.012 54.1292 100.013 54.1926C100.014 54.256 100.003 54.3194 99.9792 54.3782C99.9564 54.437 99.9214 54.4912 99.8773 54.5363C99.8332 54.582 99.7805 54.6185 99.7222 54.6433C99.6618 54.6707 99.5964 54.6839 99.53 54.6819Z" fill="#FFFFFF" stroke-width="2px" style="animation-duration: 4s;"></path><g class="technology28-c" style="animation-duration: 4s;"><path class="fillCls2" d="M95.1175 110.5H66.7737C65.7951 110.5 65 109.711 65 108.734V88.7667C65 87.792 65.7929 87 66.7737 87H95.1197C96.0983 87 96.8934 87.7898 96.8934 88.7667V108.734C96.8912 109.708 96.0983 110.5 95.1175 110.5Z" fill="#0061FE" stroke-width="2px"></path><path class="fillCls6" d="M81.9767 102.947H73.2032C72.3807 102.947 71.7148 102.32 71.7148 101.547V95.9539C71.7148 95.1801 72.3807 94.5537 73.2032 94.5537H81.9767C82.7992 94.5537 83.465 95.1801 83.465 95.9539V101.547C83.465 102.318 82.7992 102.947 81.9767 102.947Z" fill="#F7F7F7" stroke-width="2px"></path><path class="fillCls6" d="M84.3027 96.919V98.5213V98.9791V100.581L90.1778 103.786V98.9791V98.5213V93.7144L84.3027 96.919Z" fill="#F7F7F7" stroke-width="2px"></path></g><g class="technology28-b" style="animation-duration: 4s;"><path class="fillCls5" d="M46 58.2498H74.4996V44H46V58.2498Z" fill="#C572ED" stroke-width="2px"></path><path class="fillCls7" d="M46 44L60.09 51.1249L74.4996 44H46Z" fill="#DE99FF" stroke-width="2px"></path></g><g class="technology28-a" style="animation-duration: 4s;"><path class="fillCls8" d="M24.1723 68C30.8917 68 36.3397 73.3586 36.3397 79.9737C36.3397 83.2166 35.0236 86.1616 32.898 88.317L35.555 90.9342H29.074C27.5742 91.5848 25.9155 91.9523 24.1674 91.9523C17.448 91.9523 12 86.5937 12 79.9786C12 73.3636 17.453 68 24.1723 68Z" fill="#90D1BF" stroke-width="2px"></path><path class="fillCls9" d="M29.669 81.5172C30.5357 81.5172 31.2383 80.8257 31.2383 79.9727C31.2383 79.1197 30.5357 78.4282 29.669 78.4282C28.8022 78.4282 28.0996 79.1197 28.0996 79.9727C28.0996 80.8257 28.8022 81.5172 29.669 81.5172Z" fill="#259D92" stroke-width="2px"></path><path class="fillCls9" d="M24.1748 81.5172C25.0416 81.5172 25.7442 80.8257 25.7442 79.9727C25.7442 79.1197 25.0416 78.4282 24.1748 78.4282C23.3081 78.4282 22.6055 79.1197 22.6055 79.9727C22.6055 80.8257 23.3081 81.5172 24.1748 81.5172Z" fill="#259D92" stroke-width="2px"></path><path class="fillCls9" d="M18.6845 81.5172C19.5513 81.5172 20.2539 80.8257 20.2539 79.9727C20.2539 79.1197 19.5513 78.4282 18.6845 78.4282C17.8178 78.4282 17.1152 79.1197 17.1152 79.9727C17.1152 80.8257 17.8178 81.5172 18.6845 81.5172Z" fill="#259D92" stroke-width="2px"></path></g></svg>